# xmcd CD database file
#
# Track frame offsets:
#	150
#	19910
#	37478
#	78252
#	103226
#	118957
#	137303
#	158572
#	181644
#	198928
#	216519
#	244907
#	264176
#	283097
#	299720
#	316119
#	325547
#
# Disc length: 4590 seconds
#
# Revision: 0
# Processed by: cddbd v1.5.2PL0 Copyright (c) Steve Scherf et al.
# Submitted via: CDex 1.70beta2
#
DISCID=f811ec11
DTITLE=Varios - Love Blues Part 2 (Romantic Collection)
DYEAR=2000
DGENRE=Blues
TTITLE0=Grand Funk Railroad - It's A Man's World
TTITLE1=Chris Isaak - Blue Spanich Sky
TTITLE2=Stevie Ray Vaugnan - Tin Pan Allau
TTITLE3=Dire Straits - You And Your Friend
TTITLE4=Chris Rea - Sing A Song Of Love Me
TTITLE5=Robert Cray - Move A Mountain
TTITLE6=Santana - Flor D'Luna (Moonflower)
TTITLE7=Kingdom Come - What Love Can Be
TTITLE8=Vaya Con Dios - Forver Blue
TTITLE9=Oscar Benton - Bensonhurst Blues
TTITLE10=Belle Epoque - Sorry
TTITLE11=ZZ Top - Blue Jean Blues
TTITLE12=Tony Joe White - Cold Fingers
TTITLE13=Los Lobos - Someday
TTITLE14=Eric Clapton - Wonderful Tonight (Slowhand)
TTITLE15=Litle Blue - Noonwine
TTITLE16=Joe Cocker - You Can Leave Your Hat On
EXTD=YEAR: 2000
EXTT0=
EXTT1=
EXTT2=
EXTT3=
EXTT4=
EXTT5=
EXTT6=
EXTT7=
EXTT8=
EXTT9=
EXTT10=
EXTT11=
EXTT12=
EXTT13=
EXTT14=
EXTT15=
EXTT16=
PLAYORDER=
